<?xml version="1.0" encoding="UTF-8" standalone="no"?>
<svg
   width="102"
   height="30"
   viewBox="0 0 102 30"
   fill="none"
   version="1.1"
   id="svg55"
   xmlns="http://www.w3.org/2000/svg"
   xmlns:svg="http://www.w3.org/2000/svg">
  <defs
     id="defs59" />
  <path
     id="path53"
     style="color:#000000;clip-rule:evenodd;fill:#c0a468;fill-rule:evenodd;-inkscape-stroke:none"
     d="m 15.744141,0 c 0.262,0.26293 0.474609,0.61990312 0.474609,1.0019531 0,2.49519 -3.834391,2.9662719 -7.7753906,3.4511719 C 4.2803594,4.965465 0,5.4922669 0,8.4355469 c 0,1.8370001 1.8493125,2.9062501 4.9453125,2.9062501 3.701,0 6.8735625,-0.943125 9.8515625,-1.8281251 2.632,-0.7825 5.110922,-1.5195313 7.669922,-1.5195313 2.359,0 3.828125,0.5372063 3.828125,2.1289064 0,2.0082 -2.496516,4.645219 -9.978516,4.386719 -0.742,-1.2556 -2.544765,-1.933594 -4.759765,-1.933594 -6.3590004,0 -11.16015663,6.324231 -11.16015662,11.957031 0,3.4843 2.02382812,5.466797 5.54882812,5.466797 6.3350005,0 10.3736255,-6.301653 10.7656255,-10.689453 -4.899001,0.2321 -7.7756411,1.68745 -9.3066411,6.84375 -0.311,1.0518 -0.5791563,1.476562 -1.4101563,1.476562 -0.518,0 -1,-0.329506 -1,-1.128906 0,-0.749 0.5605938,-1.521234 1.3085938,-2.552734 0.649,-0.8933 1.4379531,-1.981769 2.1269531,-3.417969 0.287,-0.5974 0.4883594,-1.386847 0.6933594,-2.185547 0.436,-1.6985 0.8810621,-3.435547 2.1640621,-3.435547 0.512,0 0.84375,0.316838 0.84375,0.960938 l 0.002,0.002 c 0,0.9917 -0.61075,1.912731 -1.34375,3.019531 -0.173999,0.2629 -0.354156,0.537119 -0.535156,0.824219 1.841,-1.1841 3.425438,-1.458191 6.523438,-1.587891 C 24.684344,17.796306 28.5,13.649938 28.5,9.9609375 28.5,7.6492375 27.012969,5.15625 22.542969,5.15625 c -2.146,0 -4.455313,0.8789438 -6.820313,1.7773438 -2.479,0.942 -5.018187,1.90625 -7.4921872,1.90625 -1.2160001,0 -1.8574219,-0.4022782 -1.8574219,-1.1425782 0,-1.3757 2.3637656,-1.6457656 5.0097651,-1.9472656 3.366,-0.38362 7.189454,-0.8191037 7.189454,-3.6523438 C 18.572266,0.61711625 16.555141,0.16676 15.744141,0 Z m 20.023437,12.75 c -2.24,0 -7.267578,3.001628 -7.267578,4.986328 0.045,1.5008 1.348906,3.255413 2.628906,4.132813 l 2.080078,-3.347657 c -0.572,-0.3462 -1.234812,-0.851737 -1.257812,-1.523437 0,-0.6225 0.685297,-1.037109 1.279297,-1.037109 h 3.794922 L 31.6875,29.25 h 3.542969 c 0.504,0 0.844656,-0.275731 1.097656,-0.832031 l 5.017578,-12.457031 h 4.410156 0.002 c 1.141,-1e-6 1.94036,-0.57961 2.44336,-1.84961 L 48.75,12.75 Z m 21.029297,0 c -1.087,0 -1.756313,0.286444 -2.320313,1.714844 l -2.796874,7.226562 c -1.506001,3.7845 -5.549563,5.5 -7.101563,5.5 -1.034,0 -1.552734,-0.476187 -1.552734,-1.429687 0,-1.8092 1.787156,-3.97461 3.785156,-3.97461 h 0.728515 c 0.823001,0 1.388672,-0.428947 1.763672,-1.310547 l 0.660157,-1.568359 h -2.539063 c -4.492,0 -8.582969,4.116231 -8.417969,8.519531 0.046,1.6663 1.056625,2.548828 2.890625,2.548828 2.634,10e-7 5.52736,-1.381437 8.06836,-4.023437 l -1.529297,3.808594 h 2.421875 c 1.011,0 1.622625,-0.478144 2.140625,-1.714844 1.222,-2.9287 2.656359,-6.117187 4.443359,-6.117187 0.541,0 0.799016,0.427612 0.541016,1.070312 l -1.365234,3.355469 C 55.795187,28.380369 55.935047,30 58.123047,30 c 1.809,0 3.809469,-1.048559 5.855469,-3.193359 C 63.461516,28.663841 63.720188,30 65.742188,30 c 1.950999,0 4.281484,-1.358281 6.396484,-3.738281 -0.352,2.2851 0.895156,3.71289 3.410156,3.71289 4.091,0 8.324219,-3.854721 8.324219,-8.044921 0,0 0.422265,0.04687 0.822265,0.04687 0.659,0 1.666469,-0.238662 2.230469,-0.476562 -1.01,1.2615 -1.669922,3.024684 -1.669922,4.833984 0,2.2371 1.294172,3.666016 3.576172,3.666016 4.024,0 6.680328,-3.785481 7.111328,-6.863281 -3.246,0.2423 -5.268203,1.576956 -6.158203,4.347656 -0.224,0.6933 -0.435859,1.037109 -1.005859,1.037109 -0.4,0 -0.736328,-0.287772 -0.736328,-0.763672 0,-0.641899 0.525562,-1.342981 1.101562,-2.113281 0.388,-0.5187 0.797891,-1.068943 1.087891,-1.652343 0.271,-0.5458 0.448281,-1.175379 0.613281,-1.767579 0.315,-1.1312 0.589875,-2.123047 1.421875,-2.123047 0.399,0 0.636719,0.297544 0.636719,0.714844 0,0.6091 -0.469359,1.328688 -0.943359,2.054688 v 0.002 c -0.145,0.2219 -0.291829,0.444262 -0.423829,0.664062 1.71,-1.0948 3.067188,-1.232271 4.617188,-1.388671 l 0.05664,-0.0059 c 3.456,-0.3489 5.374062,-1.276562 5.789062,-4.539062 l -0.002,0.002 c -1.693,1.8643 -3.366894,2.326172 -6.087894,2.326172 -0.518,-0.9038 -1.694703,-1.357422 -3.220703,-1.357422 -1.388,0 -2.382187,0.484743 -3.367187,0.964843 -0.968,0.4719 -1.926141,0.939454 -3.244141,0.939454 -1.316,0 -2.6395,-0.488475 -3.8125,-0.921875 -0.848,-0.3134 -1.618,-0.596985 -2.25,-0.646485 l -0.917969,1.376953 c 0.751,0.4528 1.175782,1.096582 1.175782,2.238282 0,1.9051 -1.763532,5.095703 -3.644532,5.095703 -0.752,0 -0.987453,-0.929063 -0.564453,-1.976563 L 81.183594,12.75 h -2.091797 c -1.491,0 -1.95075,0.596147 -2.46875,1.810547 l -2.837891,7.132812 c -1.483,3.5705 -3.740203,5.283203 -5.033203,5.283203 -0.706,10e-7 -0.870891,-0.52219 -0.587891,-1.21289 l 2.75,-6.855469 h -2.304687 c -0.751,0 -1.526109,0.214291 -2.162109,1.712891 l -0.587891,1.451172 c -1.433,3.5475 -3.504125,4.904296 -4.703125,4.904296 -0.635,0 -0.917891,-0.403628 -0.587891,-1.236328 l 1.435547,-3.570312 c 0.73,-2.072 0.705203,-3.476563 -1.341797,-3.476563 -2.163,0 -4.137187,1.953191 -5.242187,3.212891 L 59.039062,12.75 Z m 14.533203,0 c -0.961,0 -1.719172,0.501625 -2.201172,1.640625 L 68.25,16.5 h 2.216797 c 1.029,0 1.738828,-0.546372 2.173828,-1.638672 L 73.5,12.75 Z" />
</svg>
